<svg xmlns="http://www.w3.org/2000/svg" width="301.995" height="96.594" viewBox="0 0 301.995 96.594"><g transform="translate(0 0)"><path d="M698.974,29.667v-.03a5.311,5.311,0,1,1,10.623-.03v.03a5.311,5.311,0,1,1-10.623.03Zm9.678-.03v-.028a4.367,4.367,0,1,0-8.733.028v.028a4.367,4.367,0,1,0,8.733-.028Zm-6.565-2.869h2.594c1.283,0,2.228.581,2.228,1.833a1.7,1.7,0,0,1-1.22,1.708l1.4,1.985h-1.617l-1.19-1.739h-.855v1.739h-1.344Zm2.5,2.687c.609,0,.945-.305.945-.764,0-.487-.366-.763-.945-.763h-1.16v1.527Z" transform="translate(-407.602 -23.41)" fill="#002151"/><path d="M734.443,60.273c-.717,0-.964.147-2.16.864l-.079.044a146.563,146.563,0,0,1-18.216,9.252c-22.779,9.651-48.541,14.642-74.576,14.646s-51.8-4.995-74.576-14.646a146.566,146.566,0,0,1-18.216-9.252l-.079-.044c-1.2-.717-1.443-.864-2.16-.864a2.351,2.351,0,0,0-2.4,2.4,2.226,2.226,0,0,0,.787,1.785c.771.726,12.989,8.168,17.593,10.768a221.215,221.215,0,0,0,22.62,11.382c17.792,7.6,35.32,11.759,52.091,12.352,1.41.054,2.819.079,4.238.079h.215c1.42,0,2.828-.025,4.237-.079,16.773-.593,34.3-4.753,52.091-12.352a221.088,221.088,0,0,0,22.622-11.382c4.6-2.6,16.82-10.042,17.592-10.768a2.231,2.231,0,0,0,.786-1.785A2.351,2.351,0,0,0,734.443,60.273Z" transform="translate(-499.073 -2.449)" fill="#e72426" fill-rule="evenodd"/><g transform="translate(0 0)"><path d="M551.777,31.214c-4.523-4.628-10.835-7.074-18.238-7.074H514.867V75.616h18.672c15.038,0,25.145-10.357,25.145-25.775,0-7.562-2.386-14-6.906-18.627m-3.868,18.77c0,9.519-5.658,15.437-14.769,15.437h-7.63V34.335h7.63c9.111,0,14.769,5.995,14.769,15.649" transform="translate(-514.867 -23.501)" fill="#002151" fill-rule="evenodd"/><path d="M579.328,75.616h10.727c-2.7-18.667-9.752-37.67-19.45-51.476h-9.181c-9.692,13.807-16.746,32.809-19.449,51.476H552.7a117.806,117.806,0,0,1,2.48-13.444h21.664a117.782,117.782,0,0,1,2.482,13.444M558.1,52.331a71.724,71.724,0,0,1,7.91-16.279,71.469,71.469,0,0,1,7.916,16.279Z" transform="translate(-499.073 -23.501)" fill="#002151" fill-rule="evenodd"/><path d="M607.229,51.358a157.839,157.839,0,0,0-25.445-27.444h-7.4V75.75h10.452V41.04A147.589,147.589,0,0,1,610.4,76.1h7.275V24.269H607.229Z" transform="translate(-480.19 -23.632)" fill="#002151" fill-rule="evenodd"/><path d="M660.361,23.736c-14.453,0-25.346,11.385-25.346,26.484,0,14.98,10.893,26.272,25.346,26.272a24.473,24.473,0,0,0,17.988-7.5,26.992,26.992,0,0,0,7.093-18.77,27.351,27.351,0,0,0-7.089-18.928,24.411,24.411,0,0,0-17.993-7.555m10.156,37.757a13.56,13.56,0,0,1-10.156,4.45c-8.269,0-14.5-6.759-14.5-15.723,0-9.043,6.232-15.866,14.5-15.866,8.113,0,14.237,6.823,14.237,15.866a16.627,16.627,0,0,1-4.081,11.273" transform="translate(-444.866 -23.736)" fill="#002151" fill-rule="evenodd"/><path d="M637.87,51.358a157.891,157.891,0,0,0-25.444-27.444h-7.4V75.75h10.452V41.04A147.6,147.6,0,0,1,641.04,76.1h7.277V24.269H637.87Z" transform="translate(-462.338 -23.632)" fill="#002151" fill-rule="evenodd"/><path d="M702.32,51.358a157.958,157.958,0,0,0-25.446-27.444h-7.4V75.75h10.45V41.04A147.6,147.6,0,0,1,705.49,76.1h7.275V24.269H702.32Z" transform="translate(-424.788 -23.632)" fill="#002151" fill-rule="evenodd"/></g></g></svg>